<?xml version="1.0" standalone="no"?>
<!DOCTYPE svg PUBLIC "-//W3C//DTD SVG 20010904//EN"
 "http://www.w3.org/TR/2001/REC-SVG-20010904/DTD/svg10.dtd">
<svg version="1.0" xmlns="http://www.w3.org/2000/svg"
 width="1500.000000pt" height="1300.000000pt" viewBox="0 0 1500.000000 1300.000000"
 preserveAspectRatio="xMidYMid meet">
<metadata>
Created by potrace 1.16, written by Peter Selinger 2001-2019
</metadata>
<g transform="translate(0.000000,1300.000000) scale(0.100000,-0.100000)"
fill="#000000" stroke="none">
<path d="M8625 10504 c-202 -17 -520 -79 -750 -148 -27 -8 -68 -20 -90 -26
-45 -13 -79 -24 -210 -71 -49 -17 -104 -38 -122 -45 -17 -8 -36 -14 -42 -14
-6 0 -19 -4 -29 -10 -9 -5 -80 -34 -157 -64 -77 -30 -166 -66 -197 -80 -31
-14 -59 -26 -62 -26 -2 0 -34 -13 -69 -30 -36 -16 -70 -30 -76 -30 -6 0 -11
-4 -11 -10 0 -5 -5 -10 -12 -10 -12 0 -578 -279 -588 -290 -3 -3 -27 -16 -55
-30 -27 -14 -82 -44 -121 -67 -39 -24 -77 -43 -83 -43 -6 0 -11 -4 -11 -9 0
-5 -11 -13 -23 -18 -30 -10 -257 -146 -253 -150 2 -2 21 3 42 11 22 8 86 29
144 47 58 17 137 42 175 54 39 13 104 33 145 45 41 12 84 25 95 30 11 4 38 13
60 18 22 6 65 18 95 27 30 9 78 23 105 30 28 7 106 29 175 48 225 63 535 137
680 161 41 8 102 18 135 25 33 6 89 16 125 22 36 6 85 15 110 19 193 35 358
50 549 50 324 0 518 -55 641 -180 67 -69 75 -80 85 -111 4 -13 13 -30 19 -38
19 -24 14 -257 -7 -316 -26 -73 -109 -245 -119 -245 -4 0 -8 -5 -8 -10 0 -10
-36 -67 -50 -80 -3 -3 -28 -34 -55 -70 -101 -134 -328 -361 -480 -480 -38 -30
-74 -60 -80 -66 -14 -16 -195 -148 -224 -164 -21 -11 -26 -10 -38 6 -7 11 -24
30 -36 44 -13 14 -45 54 -72 90 -27 36 -52 67 -55 70 -3 3 -30 37 -60 75 -30
39 -57 72 -60 75 -3 3 -30 37 -60 75 -30 39 -57 72 -60 75 -4 4 -94 117 -122
155 -5 6 -24 28 -43 50 -19 22 -35 43 -35 48 0 4 -8 15 -17 25 -10 10 -31 35
-48 56 -16 21 -35 44 -40 50 -6 6 -40 49 -75 96 -35 47 -70 91 -77 98 -7 7
-34 41 -60 75 -26 34 -50 64 -53 67 -3 3 -21 24 -39 48 l-33 43 -78 -158
c-266 -543 -319 -651 -372 -763 -33 -69 -111 -229 -174 -357 -63 -127 -114
-236 -114 -242 0 -6 -4 -11 -9 -11 -5 0 -12 -13 -16 -30 -4 -16 -10 -30 -15
-30 -5 0 -11 -13 -15 -30 -4 -16 -11 -30 -16 -30 -5 0 -9 -5 -9 -11 0 -13 -22
-61 -203 -429 -68 -140 -159 -327 -202 -415 -42 -88 -136 -279 -207 -424 -145
-293 -275 -563 -289 -600 -9 -23 -9 -23 13 -9 19 12 177 108 236 143 84 50
419 273 484 322 31 24 59 43 63 43 3 0 15 9 27 20 12 11 40 32 62 47 23 15 43
30 46 33 16 16 99 80 104 80 3 0 14 8 24 18 21 19 46 40 117 97 28 22 52 43
55 46 3 3 41 36 85 73 91 78 308 294 375 375 25 30 53 63 62 72 10 10 34 42
54 71 21 29 40 55 43 58 8 7 26 36 52 85 20 37 20 39 2 23 -11 -10 -24 -18
-30 -18 -6 0 -13 -4 -15 -9 -4 -10 -222 -159 -246 -168 -10 -4 -19 -9 -22 -12
-8 -10 -69 -51 -74 -51 -3 0 -36 -19 -73 -41 -80 -49 -169 -98 -200 -110 -20
-7 -21 -6 -12 21 6 16 100 208 209 427 109 219 223 451 254 516 31 64 60 117
64 117 10 0 42 -38 42 -50 0 -6 4 -10 8 -10 5 0 30 -29 56 -65 26 -36 54 -71
60 -78 7 -7 30 -37 51 -67 21 -30 41 -57 45 -60 4 -3 31 -36 61 -75 29 -38 63
-81 76 -95 23 -24 32 -70 14 -70 -5 0 -12 -13 -16 -30 -4 -16 -11 -30 -16 -30
-5 0 -9 -6 -9 -13 0 -12 -153 -245 -169 -257 -3 -3 -31 -36 -61 -75 -29 -38
-79 -95 -109 -126 -31 -31 -72 -74 -92 -95 -77 -83 -238 -231 -327 -302 -72
-56 -49 -53 55 8 47 28 86 50 88 50 2 0 36 19 77 43 40 24 96 56 123 71 28 16
102 59 165 98 63 38 124 75 135 81 11 7 43 27 72 44 30 18 56 33 59 33 6 0
172 107 236 151 15 11 31 19 37 19 5 0 11 4 13 8 2 4 21 19 43 32 46 27 370
242 432 286 22 16 51 36 63 44 30 21 271 198 293 216 9 8 21 14 26 14 5 0 11
4 13 9 2 5 35 32 73 62 39 29 72 55 75 59 3 3 37 30 75 60 39 30 72 57 75 60
3 4 41 37 85 75 44 38 87 76 97 84 9 9 71 68 138 131 67 63 165 167 218 230
52 63 101 120 109 126 7 6 13 15 13 19 0 5 8 18 19 29 40 45 133 189 176 273
101 195 134 306 141 473 8 176 -12 293 -73 415 -37 75 -55 106 -70 123 -7 7
-13 18 -13 23 0 20 -151 156 -216 195 -162 95 -322 133 -584 138 -102 2 -207
2 -235 0z"/>
<path d="M8335 7563 c-22 -12 -47 -26 -55 -30 -8 -4 -47 -26 -86 -50 -39 -24
-77 -43 -83 -43 -6 0 -11 -4 -11 -10 0 -5 -5 -10 -11 -10 -6 0 -48 -22 -94
-50 -46 -27 -88 -50 -94 -50 -6 0 -11 -3 -11 -7 0 -5 -34 -26 -75 -48 -41 -22
-77 -45 -79 -51 -3 -7 4 -21 14 -32 10 -11 59 -75 109 -143 50 -68 94 -129 99
-134 5 -6 26 -35 47 -65 21 -30 42 -59 47 -65 41 -50 228 -307 228 -314 0 -5
4 -11 8 -13 5 -1 26 -28 48 -58 42 -60 45 -64 74 -99 11 -13 20 -27 20 -30 0
-3 16 -24 34 -45 l34 -39 119 6 c133 6 359 22 538 37 66 5 159 12 208 16 64 5
87 10 87 20 0 8 -4 14 -8 14 -4 0 -26 23 -47 52 -22 28 -44 56 -50 62 -6 6
-40 49 -75 96 -36 47 -70 90 -76 95 -5 6 -28 33 -49 60 -22 28 -43 52 -47 53
-5 2 -8 10 -8 18 0 8 -3 14 -8 14 -4 0 -32 33 -62 73 -30 39 -60 77 -66 82 -6
6 -33 39 -60 75 -26 36 -53 70 -60 75 -6 6 -33 39 -60 75 -26 36 -53 70 -60
75 -6 6 -33 39 -60 75 -27 36 -54 70 -60 75 -6 6 -32 38 -59 73 -26 35 -57 74
-70 88 -13 13 -33 40 -46 59 -13 19 -28 36 -34 38 -5 2 -28 -7 -50 -20z"/>
<path d="M9837 5589 c-2 -8 -11 -35 -19 -62 -9 -26 -12 -49 -9 -52 4 -2 22 12
41 31 28 31 38 35 74 32 l41 -3 3 -173 2 -174 -30 -11 c-16 -6 -30 -15 -30
-19 0 -4 50 -8 112 -8 111 0 119 3 76 24 -23 11 -23 15 -23 186 l0 175 48 3
c45 3 48 1 69 -34 l22 -37 12 59 c6 32 10 60 9 62 -2 2 -12 -1 -23 -7 -13 -7
-84 -11 -178 -11 -132 0 -160 3 -176 16 -14 14 -18 14 -21 3z"/>
<path d="M4465 5571 c-3 -5 -19 -12 -35 -16 -17 -4 -30 -13 -30 -21 0 -8 -27
-84 -61 -170 -57 -146 -86 -194 -116 -194 -7 0 -13 -4 -13 -10 0 -6 35 -10 85
-10 82 0 111 11 61 24 -32 8 -36 23 -19 79 l14 47 65 0 c71 0 72 -1 89 -78 6
-30 4 -34 -24 -45 -17 -6 -31 -15 -31 -19 0 -4 50 -8 110 -8 61 0 110 3 110 8
0 4 -13 15 -29 24 -27 15 -36 36 -91 207 -57 178 -70 206 -85 182z"/>
<path d="M6455 5571 c-3 -5 -19 -12 -35 -16 -17 -4 -30 -13 -30 -21 0 -8 -27
-84 -61 -170 -57 -146 -86 -194 -116 -194 -7 0 -13 -4 -13 -10 0 -6 35 -10 85
-10 82 0 111 11 61 24 -32 8 -36 23 -19 79 l14 47 65 0 c71 0 72 -1 89 -78 6
-30 4 -34 -24 -45 -17 -6 -31 -15 -31 -19 0 -4 50 -8 110 -8 61 0 110 3 110 8
0 4 -13 15 -29 24 -27 15 -36 36 -91 207 -57 178 -70 206 -85 182z"/>
<path d="M7105 5571 c-3 -5 -19 -12 -35 -16 -17 -4 -30 -13 -30 -21 0 -8 -27
-84 -61 -170 -57 -146 -86 -194 -116 -194 -7 0 -13 -4 -13 -10 0 -6 35 -10 85
-10 82 0 111 11 61 24 -32 8 -36 23 -19 79 l14 47 65 0 c71 0 72 -1 89 -78 6
-30 4 -34 -24 -45 -17 -6 -31 -15 -31 -19 0 -4 50 -8 110 -8 61 0 110 3 110 8
0 4 -13 15 -29 24 -27 15 -36 36 -91 207 -57 178 -70 206 -85 182z"/>
<path d="M10391 5569 c-75 -16 -111 -55 -111 -123 0 -44 34 -86 106 -126 30
-17 59 -40 64 -50 26 -48 -2 -100 -53 -100 -32 0 -80 40 -97 80 -18 43 -30 37
-30 -14 0 -53 15 -71 72 -87 64 -17 126 -3 166 37 32 32 34 38 30 89 -5 65
-19 82 -106 137 -65 42 -82 70 -63 107 26 47 107 30 131 -29 7 -16 16 -30 21
-30 11 0 12 70 1 87 -11 18 -90 31 -131 22z"/>
<path d="M3720 5561 c0 -4 11 -13 25 -19 l25 -12 -2 -172 -3 -173 -30 -15 -30
-15 58 -3 c31 -2 83 -2 115 0 l57 3 -30 15 c-29 15 -30 17 -33 98 -4 113 3
112 88 -20 29 -46 61 -83 79 -92 55 -29 151 -16 151 19 0 10 -11 15 -35 15
-42 0 -84 35 -142 117 l-41 59 28 16 c46 26 65 63 54 105 -17 66 -46 78 -200
80 -74 1 -134 -1 -134 -6z"/>
<path d="M4841 5556 c-111 -40 -175 -162 -139 -267 37 -109 164 -168 301 -140
65 14 77 26 84 83 l5 43 -44 -50 c-43 -48 -47 -49 -99 -49 -99 0 -149 63 -149
188 0 76 14 111 60 150 26 21 42 26 87 26 47 0 59 -4 84 -29 16 -16 29 -37 29
-45 0 -9 5 -16 10 -16 6 0 10 22 10 49 0 46 -2 50 -31 60 -42 14 -165 13 -208
-3z"/>
<path d="M5170 5561 c0 -5 9 -12 19 -16 27 -8 31 -32 31 -193 0 -142 -8 -182
-35 -182 -7 0 -17 -4 -20 -10 -4 -6 32 -10 99 -10 58 0 106 4 106 8 0 4 -14
13 -30 19 l-31 12 3 78 3 78 93 3 93 3 -3 -83 c-3 -75 -5 -84 -25 -93 -43 -18
-23 -25 77 -25 100 0 120 7 78 25 -23 10 -23 13 -23 185 0 172 0 175 23 185
42 18 22 25 -78 25 -101 0 -121 -7 -75 -28 23 -11 25 -16 25 -87 l0 -75 -95 0
-95 0 0 69 c0 71 14 101 46 101 8 0 14 5 14 10 0 6 -40 10 -100 10 -55 0 -100
-4 -100 -9z"/>
<path d="M5690 5560 c0 -5 6 -10 13 -10 7 0 23 -9 35 -20 20 -19 22 -30 21
-133 0 -150 -10 -205 -40 -228 -24 -18 -24 -19 59 -19 45 0 82 3 82 8 0 4 -15
14 -33 22 l-32 15 -3 135 -2 135 52 -55 c29 -31 98 -104 153 -163 55 -59 108
-107 118 -107 15 0 17 16 17 189 0 159 3 192 16 205 8 9 22 16 30 16 8 0 14 5
14 10 0 6 -33 10 -80 10 -44 0 -80 -3 -80 -7 0 -5 15 -15 33 -23 l32 -15 3
-109 c1 -61 0 -116 -3 -124 -3 -8 -51 39 -132 132 l-128 145 -72 1 c-42 0 -73
-4 -73 -10z"/>
<path d="M7481 5556 c-111 -40 -175 -162 -139 -267 37 -109 164 -168 301 -140
65 14 77 26 84 83 l5 43 -44 -50 c-43 -48 -47 -49 -99 -49 -99 0 -149 63 -149
188 0 76 14 111 60 150 26 21 42 26 87 26 47 0 59 -4 84 -29 16 -16 29 -37 29
-45 0 -9 5 -16 10 -16 6 0 10 22 10 49 0 46 -2 50 -31 60 -42 14 -165 13 -208
-3z"/>
<path d="M7961 5556 c-111 -40 -175 -162 -139 -267 37 -109 164 -168 301 -140
65 14 77 26 84 83 l5 43 -44 -50 c-43 -48 -47 -49 -99 -49 -99 0 -149 63 -149
188 0 76 14 111 60 150 26 21 42 26 87 26 47 0 59 -4 84 -29 16 -16 29 -37 29
-45 0 -9 5 -16 10 -16 6 0 10 22 10 49 0 46 -2 50 -31 60 -42 14 -165 13 -208
-3z"/>
<path d="M8399 5550 c-154 -81 -159 -303 -9 -380 91 -47 206 -31 273 38 37 37
67 109 67 156 0 72 -52 151 -121 187 -52 26 -160 26 -210 -1z m147 -19 c44
-27 67 -83 72 -170 7 -124 -29 -191 -104 -191 -74 0 -128 90 -128 215 0 131
73 199 160 146z"/>
<path d="M8770 5560 c0 -5 4 -10 9 -10 5 0 17 -7 25 -16 13 -12 16 -40 16
-140 0 -83 5 -136 14 -158 40 -96 190 -125 273 -53 52 46 63 80 63 201 0 115
10 155 40 163 44 12 16 23 -55 23 -71 0 -99 -11 -55 -23 29 -8 40 -48 40 -152
0 -146 -28 -195 -113 -195 -40 0 -53 5 -78 30 l-30 29 3 138 c3 132 4 138 26
148 42 18 22 25 -78 25 -60 0 -100 -4 -100 -10z"/>
<path d="M9270 5560 c0 -5 6 -10 13 -10 7 0 23 -9 35 -20 20 -19 22 -30 21
-133 0 -150 -10 -205 -40 -228 -24 -18 -24 -19 59 -19 45 0 82 3 82 8 0 4 -15
14 -33 22 l-32 15 -3 135 -2 135 52 -55 c29 -31 98 -104 153 -163 55 -59 108
-107 118 -107 15 0 17 16 17 189 0 159 3 192 16 205 8 9 22 16 30 16 8 0 14 5
14 10 0 6 -33 10 -80 10 -44 0 -80 -3 -80 -7 0 -5 15 -15 33 -23 l32 -15 3
-109 c1 -61 0 -116 -3 -124 -3 -8 -51 39 -132 132 l-128 145 -72 1 c-42 0 -73
-4 -73 -10z"/>
<path d="M10895 5518 c-11 -6 -26 -18 -32 -26 -15 -19 -17 -68 -3 -77 5 -3 14
-14 20 -24 8 -16 3 -23 -29 -44 -39 -26 -71 -78 -71 -116 0 -11 13 -35 29 -53
26 -30 35 -33 84 -33 47 0 61 5 97 34 l42 33 33 -32 c41 -40 95 -49 145 -23
19 10 36 26 38 35 3 14 -1 15 -32 6 -44 -14 -75 -2 -105 40 l-21 30 58 53 c31
28 72 58 91 66 18 8 31 16 29 18 -2 3 -41 2 -86 -2 -78 -6 -82 -7 -66 -24 14
-16 14 -20 0 -47 -9 -17 -21 -34 -27 -38 -6 -3 -33 15 -60 42 l-49 48 27 14
c59 30 70 77 27 111 -30 23 -105 28 -139 9z"/>
<path d="M10067 4739 c-2 -8 -11 -35 -19 -62 -9 -26 -12 -49 -9 -52 4 -2 22
12 41 31 28 31 38 35 74 32 l41 -3 3 -173 2 -174 -30 -11 c-16 -6 -30 -15 -30
-19 0 -4 50 -8 112 -8 111 0 119 3 76 24 -23 11 -23 15 -23 186 l0 175 48 3
c45 3 48 1 69 -34 l22 -37 12 59 c6 32 10 60 9 62 -2 2 -12 -1 -23 -7 -13 -7
-84 -11 -178 -11 -132 0 -160 3 -176 16 -14 14 -18 14 -21 3z"/>
<path d="M5581 4719 c-75 -16 -111 -55 -111 -123 0 -44 34 -86 106 -126 30
-17 59 -40 64 -50 26 -48 -2 -100 -53 -100 -32 0 -80 40 -97 80 -18 43 -30 37
-30 -14 0 -53 15 -71 72 -87 64 -17 126 -3 166 37 32 32 34 38 30 89 -5 65
-19 82 -106 137 -65 42 -82 70 -63 107 26 47 107 30 131 -29 7 -16 16 -30 21
-30 11 0 12 70 1 87 -11 18 -90 31 -131 22z"/>
<path d="M8067 4719 c-171 -26 -256 -223 -150 -350 62 -74 194 -96 296 -51 44
20 47 24 37 43 -17 30 -3 100 21 106 46 13 11 23 -76 23 -57 0 -95 -4 -95 -10
0 -5 9 -10 19 -10 34 0 50 -25 44 -72 -5 -44 -32 -78 -60 -78 -8 0 -30 7 -49
16 -100 48 -104 287 -4 339 16 8 50 15 75 15 48 0 81 -23 111 -75 18 -30 27
-11 20 39 -5 32 -13 47 -26 51 -44 14 -118 20 -163 14z"/>
<path d="M8631 4719 c-75 -16 -111 -55 -111 -123 0 -44 34 -86 106 -126 30
-17 59 -40 64 -50 26 -48 -2 -100 -53 -100 -32 0 -80 40 -97 80 -18 43 -30 37
-30 -14 0 -53 15 -71 72 -87 64 -17 126 -3 166 37 32 32 34 38 30 89 -5 65
-19 82 -106 137 -65 42 -82 70 -63 107 26 47 107 30 131 -29 7 -16 16 -30 21
-30 11 0 12 70 1 87 -11 18 -90 31 -131 22z"/>
<path d="M9391 4719 c-75 -16 -111 -55 -111 -123 0 -44 34 -86 106 -126 30
-17 59 -40 64 -50 26 -48 -2 -100 -53 -100 -32 0 -80 40 -97 80 -18 43 -30 37
-30 -14 0 -53 15 -71 72 -87 64 -17 126 -3 166 37 32 32 34 38 30 89 -5 65
-19 82 -106 137 -65 42 -82 70 -63 107 26 47 107 30 131 -29 7 -16 16 -30 21
-30 11 0 12 70 1 87 -11 18 -90 31 -131 22z"/>
<path d="M3530 4712 c0 -5 11 -14 25 -20 l25 -12 -2 -172 c-3 -168 -4 -173
-26 -184 -12 -6 -25 -14 -29 -18 -3 -3 68 -6 159 -6 l166 0 11 46 c7 26 9 49
5 53 -4 3 -9 1 -11 -6 -2 -7 -13 -23 -24 -37 -18 -23 -28 -26 -85 -26 -74 0
-77 5 -72 105 l3 60 48 3 c43 3 48 1 57 -22 15 -41 20 -31 20 42 -1 66 -1 66
-16 39 -14 -25 -20 -28 -62 -25 l-47 3 -3 54 c-5 93 0 101 62 101 47 0 58 -4
75 -26 11 -14 22 -30 24 -37 9 -26 15 0 10 46 l-6 47 -153 0 c-85 0 -154 -4
-154 -8z"/>
<path d="M4130 4712 c0 -5 11 -14 25 -20 l25 -12 -2 -172 -3 -173 -30 -15 -30
-15 58 -3 c31 -2 83 -2 115 0 l57 3 -30 15 -30 15 -3 177 c-2 171 -2 177 18
183 27 9 68 -18 81 -53 15 -38 4 -130 -18 -154 -11 -12 -26 -18 -41 -15 -14 3
-21 0 -19 -7 2 -6 22 -11 45 -10 140 3 183 197 56 250 -37 15 -274 20 -274 6z"/>
<path d="M4540 4712 c0 -5 11 -14 25 -20 l25 -12 -2 -172 c-3 -168 -4 -173
-26 -184 -12 -6 -25 -14 -29 -18 -3 -3 68 -6 159 -6 l166 0 11 46 c7 26 9 49
5 53 -4 3 -9 1 -11 -6 -2 -7 -13 -23 -24 -37 -18 -23 -28 -26 -85 -26 -74 0
-77 5 -72 105 l3 60 48 3 c43 3 48 1 57 -22 15 -41 20 -31 20 42 -1 66 -1 66
-16 39 -14 -25 -20 -28 -62 -25 l-47 3 -3 54 c-5 93 0 101 62 101 47 0 58 -4
75 -26 11 -14 22 -30 24 -37 9 -26 15 0 10 46 l-6 47 -153 0 c-85 0 -154 -4
-154 -8z"/>
<path d="M4920 4710 c0 -5 6 -10 13 -10 7 0 23 -9 35 -20 20 -19 22 -30 21
-133 0 -150 -10 -205 -40 -228 -24 -18 -24 -19 59 -19 45 0 82 3 82 8 0 4 -15
14 -33 22 l-32 15 -3 135 -2 135 52 -55 c29 -31 98 -104 153 -163 55 -59 108
-107 118 -107 15 0 17 16 17 189 0 159 3 192 16 205 8 9 22 16 30 16 8 0 14 5
14 10 0 6 -33 10 -80 10 -44 0 -80 -3 -80 -7 0 -5 15 -15 33 -23 l32 -15 3
-109 c1 -61 0 -116 -3 -124 -3 -8 -51 39 -132 132 l-128 145 -72 1 c-42 0 -73
-4 -73 -10z"/>
<path d="M5790 4712 c0 -5 11 -14 25 -20 l25 -12 -2 -172 c-3 -168 -4 -173
-26 -184 -43 -21 -35 -24 71 -24 102 0 137 10 82 24 l-25 6 0 175 0 175 25 12
c46 21 26 28 -75 28 -55 0 -100 -4 -100 -8z"/>
<path d="M6159 4700 c-154 -81 -159 -303 -9 -380 91 -47 206 -31 273 38 37 37
67 109 67 156 0 72 -52 151 -121 187 -52 26 -160 26 -210 -1z m147 -19 c44
-27 67 -83 72 -170 7 -124 -29 -191 -104 -191 -74 0 -128 90 -128 215 0 131
73 199 160 146z"/>
<path d="M6540 4710 c0 -5 6 -10 13 -10 7 0 23 -9 35 -20 20 -19 22 -30 21
-133 0 -150 -10 -205 -40 -228 -24 -18 -24 -19 59 -19 45 0 82 3 82 8 0 4 -15
14 -33 22 l-32 15 -3 135 -2 135 52 -55 c29 -31 98 -104 153 -163 55 -59 108
-107 118 -107 15 0 17 16 17 189 0 159 3 192 16 205 8 9 22 16 30 16 8 0 14 5
14 10 0 6 -33 10 -80 10 -44 0 -80 -3 -80 -7 0 -5 15 -15 33 -23 l32 -15 3
-109 c1 -61 0 -116 -3 -124 -3 -8 -51 39 -132 132 l-128 145 -72 1 c-42 0 -73
-4 -73 -10z"/>
<path d="M7080 4712 c0 -5 11 -14 25 -20 l25 -12 -2 -172 c-3 -168 -4 -173
-26 -184 -43 -21 -35 -24 71 -24 102 0 137 10 82 24 l-25 6 0 175 0 175 25 12
c46 21 26 28 -75 28 -55 0 -100 -4 -100 -8z"/>
<path d="M7320 4710 c0 -5 6 -10 13 -10 7 0 23 -9 35 -20 20 -19 22 -30 21
-133 0 -150 -10 -205 -40 -228 -24 -18 -24 -19 59 -19 45 0 82 3 82 8 0 4 -15
14 -33 22 l-32 15 -3 135 -2 135 52 -55 c29 -31 98 -104 153 -163 55 -59 108
-107 118 -107 15 0 17 16 17 189 0 159 3 192 16 205 8 9 22 16 30 16 8 0 14 5
14 10 0 6 -33 10 -80 10 -44 0 -80 -3 -80 -7 0 -5 15 -15 33 -23 l32 -15 3
-109 c1 -61 0 -116 -3 -124 -3 -8 -51 39 -132 132 l-128 145 -72 1 c-42 0 -73
-4 -73 -10z"/>
<path d="M8820 4712 c0 -4 10 -12 22 -17 13 -6 49 -50 82 -100 54 -81 60 -96
64 -152 6 -83 -2 -111 -33 -119 -56 -14 -19 -24 87 -24 111 0 119 3 76 24 -21
10 -23 20 -26 96 l-3 85 52 84 c32 52 64 90 85 103 19 11 34 22 34 24 0 2 -38
4 -85 4 -50 0 -85 -4 -85 -10 0 -5 8 -10 19 -10 42 0 44 -25 6 -100 -20 -40
-41 -70 -48 -67 -7 2 -29 34 -50 71 -32 54 -37 69 -27 81 7 8 19 15 26 15 8 0
14 4 14 9 0 5 -47 9 -105 9 -58 1 -105 -2 -105 -6z"/>
<path d="M9580 4712 c0 -4 10 -12 22 -17 13 -6 49 -50 82 -100 54 -81 60 -96
64 -152 6 -83 -2 -111 -33 -119 -56 -14 -19 -24 87 -24 111 0 119 3 76 24 -21
10 -23 20 -26 96 l-3 85 52 84 c32 52 64 90 85 103 19 11 34 22 34 24 0 2 -38
4 -85 4 -50 0 -85 -4 -85 -10 0 -5 8 -10 19 -10 42 0 44 -25 6 -100 -20 -40
-41 -70 -48 -67 -7 2 -29 34 -50 71 -32 54 -37 69 -27 81 7 8 19 15 26 15 8 0
14 4 14 9 0 5 -47 9 -105 9 -58 1 -105 -2 -105 -6z"/>
<path d="M10510 4712 c0 -5 11 -14 25 -20 l25 -12 -2 -172 c-3 -168 -4 -173
-26 -184 -12 -6 -25 -14 -29 -18 -3 -3 68 -6 159 -6 l166 0 11 46 c7 26 9 49
5 53 -4 3 -9 1 -11 -6 -2 -7 -13 -23 -24 -37 -18 -23 -28 -26 -85 -26 -74 0
-77 5 -72 105 l3 60 48 3 c43 3 48 1 57 -22 15 -41 20 -31 20 42 -1 66 -1 66
-16 39 -14 -25 -20 -28 -62 -25 l-47 3 -3 54 c-5 93 0 101 62 101 47 0 58 -4
75 -26 11 -14 22 -30 24 -37 9 -26 15 0 10 46 l-6 47 -153 0 c-85 0 -154 -4
-154 -8z"/>
<path d="M10900 4710 c0 -5 6 -10 14 -10 8 0 23 -8 35 -17 21 -18 21 -21 10
-148 -14 -168 -23 -201 -57 -219 -26 -14 -22 -15 61 -16 56 0 86 4 82 10 -3 6
-12 10 -20 10 -36 0 -45 29 -45 143 0 62 4 117 8 124 4 7 34 -48 73 -135 35
-80 69 -147 74 -149 6 -1 37 63 70 143 33 80 63 148 68 151 4 2 7 -57 7 -131
l0 -136 -25 -6 c-54 -14 -20 -24 80 -24 99 0 135 10 81 24 -13 3 -27 14 -31
23 -3 10 -9 88 -12 174 l-6 157 34 18 34 19 -40 3 c-22 2 -58 -1 -80 -5 -33
-7 -40 -14 -46 -38 -7 -33 -87 -225 -98 -238 -5 -4 -31 50 -60 120 -28 70 -55
135 -60 143 -10 18 -151 28 -151 10z"/>
</g>
</svg>
